HIERARCHY
ROOT Hips
{
	OFFSET 3.635676 -0.029931 16.716202
	CHANNELS 6 Xposition Yposition Zposition Xrotation Yrotation Zrotation
	JOINT Spine
	{
		OFFSET -2.328047 -0.233396 1.326775
		CHANNELS 6 Xposition Yposition Zposition Xrotation Yrotation Zrotation
		JOINT Spine1
		{
			OFFSET -1.269460 -0.047563 1.204964
			CHANNELS 6 Xposition Yposition Zposition Xrotation Yrotation Zrotation
			JOINT Spine2
			{
				OFFSET -1.368899 -0.023871 1.091455
				CHANNELS 6 Xposition Yposition Zposition Xrotation Yrotation Zrotation
				JOINT Spine3
				{
					OFFSET -1.457911 -0.000000 0.969645
					CHANNELS 6 Xposition Yposition Zposition Xrotation Yrotation Zrotation
					JOINT Neck
					{
						OFFSET -4.186156 0.102714 2.005333
						CHANNELS 6 Xposition Yposition Zposition Xrotation Yrotation Zrotation
						JOINT Head
						{
							OFFSET -2.066332 0.065398 2.209999
							CHANNELS 6 Xposition Yposition Zposition Xrotation Yrotation Zrotation
							End Site
							{
								OFFSET -3.723924 0.000001 1.864305
							}
						}
					}
					JOINT RightShoulder
					{
						OFFSET -3.185915 0.747433 1.047771
						CHANNELS 6 Xposition Yposition Zposition Xrotation Yrotation Zrotation
						JOINT RightArm
						{
							OFFSET -0.365717 2.936968 -0.666592
							CHANNELS 6 Xposition Yposition Zposition Xrotation Yrotation Zrotation
							JOINT RightForeArm
							{
								OFFSET 0.315914 0.591119 -2.448708
								CHANNELS 6 Xposition Yposition Zposition Xrotation Yrotation Zrotation
								JOINT RightHand
								{
									OFFSET -2.051042 0.521136 -0.992044
									CHANNELS 6 Xposition Yposition Zposition Xrotation Yrotation Zrotation
									JOINT RightHandEnd
									{
										OFFSET -0.696754 0.149593 -0.588911
										CHANNELS 6 Xposition Yposition Zposition Xrotation Yrotation Zrotation
										End Site
										{
											OFFSET -0.696753 0.149593 -0.588911
										}
									}
									JOINT RightHandThumb1
									{
										OFFSET -0.135592 -0.796009 -0.488258
										CHANNELS 6 Xposition Yposition Zposition Yrotation Xrotation Zrotation
										End Site
										{
											OFFSET -0.682886 -0.196600 -0.597397
										}
									}
								}
							}
						}
					}
					JOINT LeftShoulder
					{
						OFFSET -3.289651 -0.435237 0.891800
						CHANNELS 6 Xposition Yposition Zposition Xrotation Yrotation Zrotation
						JOINT LeftArm
						{
							OFFSET -0.257606 -2.936968 -0.387327
							CHANNELS 6 Xposition Yposition Zposition Xrotation Yrotation Zrotation
							JOINT LeftForeArm
							{
								OFFSET 0.284856 -0.077413 -2.746111
								CHANNELS 6 Xposition Yposition Zposition Xrotation Yrotation Zrotation
								JOINT LeftHand
								{
									OFFSET -2.027425 -0.068249 -0.880924
									CHANNELS 6 Xposition Yposition Zposition Xrotation Yrotation Zrotation
									JOINT LeftHandEnd
									{
										OFFSET -0.688319 -0.019591 -0.606153
										CHANNELS 6 Xposition Yposition Zposition Xrotation Yrotation Zrotation
										End Site
										{
											OFFSET -0.713974 -0.019590 -0.446257
										}
									}
									JOINT LeftHandThumb1
									{
										OFFSET -0.083853 0.853919 -0.453426
										CHANNELS 6 Xposition Yposition Zposition Yrotation Xrotation Zrotation
										End Site
										{
											OFFSET -0.656959 0.324347 -0.598707
										}
									}
								}
							}
						}
					}
				}
			}
		}
	}
	JOINT RightUpLeg
	{
		OFFSET -0.688493 2.309778 -0.825785
		CHANNELS 6 Xposition Yposition Zposition Xrotation Yrotation Zrotation
		JOINT RightLeg
		{
			OFFSET -2.912278 0.000003 -5.177770
			CHANNELS 6 Xposition Yposition Zposition Xrotation Yrotation Zrotation
			JOINT RightFoot
			{
				OFFSET 1.760911 0.000001 -4.225841
				CHANNELS 6 Xposition Yposition Zposition Xrotation Yrotation Zrotation
				JOINT RightToeBase
				{
					OFFSET -2.411492 0.639390 -3.113107
					CHANNELS 6 Xposition Yposition Zposition Xrotation Yrotation Zrotation
					End Site
					{
						OFFSET -1.868579 0.295954 0.000000
					}
				}
			}
		}
	}
	JOINT LeftUpLeg
	{
		OFFSET -1.420158 -2.309778 -0.825787
		CHANNELS 6 Xposition Yposition Zposition Xrotation Yrotation Zrotation
		JOINT LeftLeg
		{
			OFFSET -2.912278 0.000003 -5.177770
			CHANNELS 6 Xposition Yposition Zposition Xrotation Yrotation Zrotation
			JOINT LeftFoot
			{
				OFFSET 1.760911 0.000002 -4.225841
				CHANNELS 6 Xposition Yposition Zposition Xrotation Yrotation Zrotation
				JOINT LeftToeBase
				{
					OFFSET -2.411492 0.639390 -3.113107
					CHANNELS 6 Xposition Yposition Zposition Xrotation Yrotation Zrotation
					End Site
					{
						OFFSET -1.868578 0.295954 0.000000
					}
				}
			}
		}
	}
}
MOTION
Frames: 7
Frame Time: 0.041667
3.635675 -0.029931 16.716204 -0.000001 0.000000 0.000000 -2.328046 -0.233396 1.326774 -0.000001 0.000002 0.000000 -1.269459 -0.047563 1.204958 -0.000000 0.000006 -0.000001 -1.368899 -0.023871 1.091452 -0.000000 0.000002 -0.000000 -1.457909 0.000001 0.969645 0.000001 0.000003 -0.000000 -4.186157 0.102715 2.005334 -0.000000 0.000001 -0.000000 -2.066335 0.065398 2.210002 0.000000 -0.000002 -0.000000 -3.185912 0.747432 1.047766 -0.000000 0.000000 -0.000001 -0.365719 2.936970 -0.666591 0.000003 -0.000000 -0.000001 0.315911 0.591121 -2.448708 -0.000002 -0.000003 -0.000000 -2.051041 0.521136 -0.992051 -0.000002 0.000001 0.000005 -0.696754 0.149593 -0.588914 0.000003 -0.000009 0.000001 -0.135590 -0.796009 -0.488267 0.000000 0.000000 0.000000 -3.289650 -0.435235 0.891796 0.000000 0.000001 0.000000 -0.257604 -2.936968 -0.387331 -0.000000 -0.000001 -0.000000 0.284856 -0.077413 -2.746112 -0.000000 0.000003 -0.000000 -2.027426 -0.068250 -0.880925 -0.000003 -0.000003 -0.000002 -0.688317 -0.019590 -0.606158 0.000000 0.000004 -0.000003 -0.083850 0.853918 -0.453430 0.000004 -0.000001 -0.000004 -0.688493 2.309778 -0.825784 -0.000001 0.000002 0.000000 -2.912277 0.000003 -5.177772 -0.000000 0.000002 0.000000 1.760912 0.000001 -4.225841 -0.000001 0.000001 -0.000000 -2.411492 0.639390 -3.113108 -0.000002 0.000000 0.000001 -1.420160 -2.309778 -0.825786 -0.000001 -0.000002 0.000000 -2.912278 0.000004 -5.177773 0.000000 -0.000003 -0.000000 1.760910 0.000000 -4.225843 0.000001 -0.000003 0.000002 -2.411493 0.639390 -3.113107 0.000003 -0.000001 -0.000000 
2.988031 -0.029931 16.760651 -0.000001 0.000000 0.000000 -2.328045 -0.233396 1.326774 -0.026910 -3.775080 -0.000769 -1.269464 -0.047563 1.204964 0.000001 -0.000003 -0.000000 -1.368899 -0.023871 1.091459 0.000000 0.000007 -0.000000 -1.457908 0.000001 0.969643 0.000000 0.000003 0.000001 -4.186155 0.102714 2.005334 0.000001 0.000001 -0.000000 -2.066333 0.065398 2.210005 -0.000000 -0.000005 0.000000 -3.185912 0.747432 1.047774 0.000002 0.000003 -0.000000 -0.365716 2.936972 -0.666595 0.333249 -5.609567 0.058352 0.315913 0.591118 -2.448700 -0.000001 -0.000003 0.000003 -2.051039 0.521134 -0.992044 -0.000002 0.000001 0.000000 -0.696754 0.149592 -0.588909 0.000001 -0.000004 -0.000001 -0.135592 -0.796010 -0.488265 -0.000006 -0.000003 0.000000 -3.289650 -0.435236 0.891798 0.000000 0.000003 0.000001 -0.257606 -2.936970 -0.387329 0.000119 -0.148009 -0.000396 0.284857 -0.077413 -2.746111 -0.000000 0.000005 -0.000000 -2.027426 -0.068249 -0.880924 -0.000002 0.000004 -0.000004 -0.688318 -0.019590 -0.606152 -0.000002 0.000002 -0.000000 -0.083853 0.853918 -0.453430 -0.000000 -0.000002 0.000002 -0.688491 2.309778 -0.825784 -0.000000 1.416908 -0.000000 -2.912277 0.000003 -5.177769 -0.000003 -9.608859 -0.000005 1.760911 -0.000000 -4.225841 -0.605988 6.447672 -0.177834 -2.411493 0.639390 -3.113106 -0.545026 -14.524933 1.221924 -1.420158 -2.309778 -0.825788 -0.000003 -3.838563 -0.000002 -2.912278 0.000004 -5.177769 -0.000000 -0.000005 -0.000000 1.760911 0.000002 -4.225842 -0.049953 1.898493 -0.024837 -2.411492 0.639390 -3.113108 0.000000 -0.000001 0.000003 
1.563216 -0.029931 16.858431 -0.000001 0.000000 0.000000 -2.328044 -0.233396 1.326774 -0.053311 -12.430415 -0.004278 -1.269460 -0.047563 1.204958 -0.000001 0.000011 -0.000000 -1.368899 -0.023871 1.091456 0.000000 0.000003 -0.000000 -1.457910 0.000001 0.969644 0.000000 -0.000002 -0.000000 -4.186156 0.102714 2.005336 -0.000000 -0.000002 -0.000000 -2.066333 0.065398 2.210006 0.000000 0.000000 0.000001 -3.185913 0.747432 1.047774 0.000002 0.000001 -0.000002 -0.365719 2.936970 -0.666596 0.705449 -18.488846 0.229257 0.315910 0.591119 -2.448708 -0.000005 -0.000007 0.000002 -2.051040 0.521136 -0.992050 0.000001 -0.000001 0.000002 -0.696753 0.149592 -0.588914 -0.000001 -0.000008 0.000002 -0.135591 -0.796009 -0.488264 -0.000009 -0.000000 0.000000 -3.289650 -0.435237 0.891798 0.000001 -0.000001 -0.000001 -0.257605 -2.936968 -0.387329 0.000221 -0.640268 -0.001044 0.284858 -0.077413 -2.746113 -0.000000 0.000001 -0.000000 -2.027428 -0.068249 -0.880924 -0.000003 -0.000001 -0.000005 -0.688317 -0.019590 -0.606150 -0.000002 0.000007 0.000001 -0.083848 0.853918 -0.453426 0.000002 -0.000002 0.000000 -0.688493 2.309778 -0.825782 0.000000 4.942445 0.000000 -2.912278 0.000003 -5.177768 -0.000014 -30.748344 -0.000014 1.760911 0.000001 -4.225842 -1.132373 20.838863 -0.239017 -2.411494 0.639389 -3.113106 -0.013915 -46.466883 2.774245 -1.420158 -2.309778 -0.825787 -0.000007 -13.264619 -0.000008 -2.912278 0.000004 -5.177771 0.000000 -0.000007 -0.000000 1.760910 0.000001 -4.225841 -0.092877 6.088530 -0.044751 -2.411492 0.639391 -3.113107 0.000002 0.000002 0.000001 
0.138401 -0.029931 16.956213 -0.000001 0.000000 0.000000 -2.328045 -0.233396 1.326776 -0.028551 -21.960035 -0.003530 -1.269461 -0.047563 1.204962 -0.000000 0.000001 -0.000000 -1.368899 -0.023871 1.091450 -0.000000 0.000003 -0.000000 -1.457913 0.000001 0.969643 0.000000 0.000005 -0.000000 -4.186155 0.102713 2.005332 -0.000000 -0.000004 -0.000000 -2.066338 0.065398 2.210004 0.000000 -0.000005 0.000000 -3.185913 0.747431 1.047769 0.000001 0.000002 -0.000000 -0.365715 2.936970 -0.666587 0.462018 -32.685426 0.239536 0.315913 0.591118 -2.448704 -0.000001 0.000006 0.000003 -2.051042 0.521136 -0.992050 -0.000000 -0.000003 0.000004 -0.696756 0.149594 -0.588906 -0.000000 -0.000007 -0.000000 -0.135590 -0.796008 -0.488264 0.000002 -0.000000 0.000001 -3.289650 -0.435236 0.891801 0.000000 -0.000002 -0.000000 -0.257604 -2.936969 -0.387322 0.000124 -1.549106 -0.001158 0.284854 -0.077413 -2.746113 -0.000000 0.000007 -0.000000 -2.027427 -0.068249 -0.880927 0.000004 -0.000003 -0.000003 -0.688319 -0.019590 -0.606154 -0.000001 0.000004 -0.000003 -0.083852 0.853918 -0.453428 0.000000 0.000002 -0.000001 -0.688491 2.309778 -0.825782 0.000001 9.488814 0.000002 -2.912278 0.000003 -5.177769 -0.000032 -51.887820 -0.000028 1.760909 0.000000 -4.225842 -0.610003 35.430090 -0.068167 -2.411494 0.639389 -3.113106 2.523650 -78.222796 3.828004 -1.420158 -2.309778 -0.825784 -0.000013 -25.143731 -0.000015 -2.912279 0.000004 -5.177772 -0.000000 -0.000003 -0.000000 1.760910 0.000002 -4.225840 -0.048122 10.294794 -0.022430 -2.411491 0.639390 -3.113107 0.000004 0.000002 0.000004 
-0.509244 -0.029931 17.000660 -0.000001 0.000000 0.000000 -2.328044 -0.233397 1.326774 -0.000014 -28.355785 -0.000006 -1.269462 -0.047563 1.204960 0.000000 0.000001 -0.000001 -1.368904 -0.023871 1.091448 0.000000 -0.000002 -0.000000 -1.457909 0.000001 0.969649 0.000000 0.000005 -0.000000 -4.186159 0.102714 2.005336 -0.000002 -0.000001 -0.000000 -2.066336 0.065398 2.210003 -0.000000 0.000000 0.000000 -3.185915 0.747432 1.047768 -0.000001 0.000001 -0.000001 -0.365719 2.936971 -0.666589 -0.000050 -42.281678 -0.000047 0.315910 0.591120 -2.448704 0.000001 -0.000001 0.000002 -2.051040 0.521136 -0.992046 0.000001 -0.000001 0.000006 -0.696755 0.149593 -0.588911 -0.000002 -0.000005 -0.000004 -0.135591 -0.796009 -0.488267 0.000003 -0.000001 -0.000001 -3.289653 -0.435237 0.891793 0.000001 -0.000003 -0.000000 -0.257607 -2.936970 -0.387325 -0.000002 -2.946855 -0.000001 0.284855 -0.077413 -2.746109 -0.000000 0.000005 -0.000000 -2.027426 -0.068250 -0.880924 -0.000001 0.000004 -0.000000 -0.688317 -0.019590 -0.606154 0.000000 -0.000005 -0.000003 -0.083848 0.853918 -0.453426 -0.000004 0.000005 -0.000003 -0.688491 2.309778 -0.825783 0.000003 13.968229 0.000002 -2.912280 0.000003 -5.177770 -0.000041 -61.496694 -0.000033 1.760911 0.000001 -4.225839 0.000012 42.103704 0.000007 -2.411496 0.639389 -3.113107 0.000745 -92.565401 0.000705 -1.420159 -2.309778 -0.825784 -0.000015 -36.341466 -0.000018 -2.912278 0.000004 -5.177771 0.000000 -0.000003 -0.000000 1.760911 0.000002 -4.225841 0.000003 12.211437 0.000005 -2.411493 0.639390 -3.113108 -0.000001 -0.000002 0.000003 
-0.509244 -0.029931 17.000660 -0.000001 0.000000 0.000000 -2.328045 -0.233396 1.326774 -0.005347 -31.298608 -0.002360 -1.269461 -0.047563 1.204963 -0.001859 0.861313 0.000215 -1.368903 -0.023872 1.091454 0.000000 0.000003 -0.000000 -1.457908 0.000001 0.969643 0.000000 0.000007 0.000000 -4.186155 0.102714 2.005338 -0.002750 -0.237186 -0.000118 -2.066331 0.065398 2.209998 -0.000000 1.121139 0.000001 -3.185914 0.747431 1.047770 -0.000000 0.000004 -0.000003 -0.365720 2.936971 -0.666593 -0.070664 -46.788613 -0.096353 0.315906 0.591120 -2.448708 -0.000001 -0.000003 -0.000000 -2.051041 0.521136 -0.992046 -0.000001 0.000001 0.000002 -0.696756 0.149592 -0.588911 -0.000000 -0.000000 -0.000001 -0.135594 -0.796010 -0.488265 -0.000011 -0.000000 -0.000002 -3.289649 -0.435236 0.891798 0.000002 -0.000001 -0.000000 -0.257607 -2.936969 -0.387325 0.000312 -4.879698 0.002816 0.284855 -0.077412 -2.746112 -0.000000 0.000003 -0.000000 -2.027426 -0.068248 -0.880925 0.000001 -0.000002 -0.000000 -0.688320 -0.019589 -0.606150 -0.000007 0.000005 -0.000003 -0.083853 0.853920 -0.453427 0.000001 -0.000003 -0.000003 -0.688491 2.309778 -0.825784 0.000004 17.518675 0.000004 -2.912280 0.000002 -5.177769 -0.000039 -58.789631 -0.000031 1.760910 0.000000 -4.225843 -0.184129 39.775272 0.000575 -2.411495 0.639391 -3.113108 0.000726 -92.565394 0.000719 -1.420160 -2.309778 -0.825783 -0.000018 -44.405788 -0.000022 -2.912277 0.000004 -5.177771 0.000000 1.221991 0.000001 1.760910 0.000002 -4.225841 -0.034096 11.145217 -0.016265 -2.411493 0.639391 -3.113107 -0.000001 0.000004 -0.000000 
-0.509244 -0.029931 17.000660 -0.000001 0.000000 0.000000 -2.328045 -0.233396 1.326773 -0.004666 -33.271327 -0.002113 -1.269461 -0.047563 1.204964 -0.005226 3.014587 0.000671 -1.368902 -0.023871 1.091454 0.000000 -0.000003 -0.000000 -1.457912 0.000001 0.969648 0.000001 0.000005 -0.000000 -4.186157 0.102713 2.005337 -0.008276 -0.986796 -0.000460 -2.066336 0.065398 2.210006 0.000001 3.923969 0.000001 -3.185915 0.747431 1.047766 -0.000000 -0.000002 -0.000000 -0.365717 2.936971 -0.666593 -0.128554 -49.803509 -0.142856 0.315910 0.591119 -2.448703 -0.000001 -0.000005 0.000002 -2.051041 0.521135 -0.992048 0.000002 0.000001 0.000002 -0.696753 0.149593 -0.588911 0.000002 -0.000005 -0.000003 -0.135592 -0.796010 -0.488262 -0.000001 0.000001 -0.000003 -3.289649 -0.435237 0.891800 -0.000001 -0.000004 0.000000 -0.257605 -2.936969 -0.387322 0.001084 -7.289320 0.006423 0.284855 -0.077412 -2.746110 -0.000000 0.000005 -0.000000 -2.027426 -0.068248 -0.880925 0.000001 -0.000002 -0.000009 -0.688318 -0.019588 -0.606151 -0.000003 0.000004 -0.000003 -0.083852 0.853917 -0.453427 -0.000001 -0.000001 0.000000 -0.688492 2.309778 -0.825784 0.000005 20.181201 0.000005 -2.912279 0.000003 -5.177771 -0.000029 -52.021972 -0.000023 1.760911 0.000001 -4.225841 -0.502266 33.967606 -0.022492 -2.411495 0.639390 -3.113107 0.000745 -92.565394 0.000724 -1.420159 -2.309778 -0.825786 -0.000022 -49.614282 -0.000026 -2.912280 0.000004 -5.177770 0.000001 4.485893 0.000001 1.760913 0.000002 -4.225841 -0.096536 8.483235 -0.046986 -2.411491 0.639390 -3.113108 0.000003 -0.000001 0.000004 
